# xmcd CD database file
#
# Track frame offsets:
#	150
#	36314
#	60648
#	96234
#	117676
#	135181
#	149425
#	169098
#	188511
#	213318
#	225155
#	244857
#	259982
#	278549
#	298528
#
# Disc length: 4240 seconds
#
# Revision: 0
# Processed by: cddbd v1.5.2PL0 Copyright (c) Steve Scherf et al.
# Submitted via: CDex 1.70beta2
#
DISCID=d8108e0f
DTITLE=Mann, Herbie - African Suite - Do The Bossa Nova
DYEAR=1962
DGENRE=Jazz
TTITLE0=St Thomas
TTITLE1=Sorimao
TTITLE2=Jungle Fantasy
TTITLE3=Bedouin
TTITLE4=Sudan
TTITLE5=Ekundo
TTITLE6=Guinean
TTITLE7=Deve Ser Amor
TTITLE8=Menna Feia
TTITLE9=Amor Em Paz
TTITLE10=Voce E Eu
TTITLE11=One Note Samba
TTITLE12=Blues Walk
TTITLE13=Consolacao
TTITLE14=Bossa Velha
EXTD=YEAR: 1962
EXTT0=
EXTT1=
EXTT2=
EXTT3=
EXTT4=
EXTT5=
EXTT6=
EXTT7=
EXTT8=
EXTT9=
EXTT10=
EXTT11=
EXTT12=
EXTT13=
EXTT14=
PLAYORDER=
